<svg width="515" height="492" viewBox="0 0 515 492" fill="none" xmlns="http://www.w3.org/2000/svg">
<path d="M156.82 342.903L421.825 342.903C427.482 342.903 432.069 338.254 432.069 332.52L432.069 16.2386C432.069 10.5038 427.482 5.85489 421.825 5.85489L156.82 5.85489C151.163 5.85489 146.577 10.5038 146.577 16.2386L146.577 332.52C146.577 338.254 151.163 342.903 156.82 342.903Z" fill="white"/>
<path d="M145.947 332.521V16.2386C145.95 13.3164 147.097 10.5148 149.135 8.44859C151.174 6.38235 153.938 5.22013 156.82 5.21692H421.825C424.708 5.22013 427.472 6.38235 429.51 8.44859C431.549 10.5148 432.695 13.3164 432.699 16.2386V332.521C432.695 335.443 431.549 338.245 429.51 340.311C427.472 342.378 424.708 343.54 421.825 343.543H156.82C153.938 343.54 151.174 342.378 149.135 340.311C147.097 338.245 145.95 335.443 145.947 332.521ZM156.82 6.49476C154.272 6.49763 151.828 7.52518 150.026 9.35197C148.224 11.1788 147.21 13.6556 147.207 16.2392V332.521C147.21 335.105 148.224 337.582 150.026 339.408C151.828 341.235 154.272 342.263 156.82 342.266H421.825C424.374 342.263 426.817 341.235 428.62 339.408C430.422 337.582 431.436 335.105 431.439 332.521V16.2386C431.436 13.655 430.422 11.1781 428.62 9.35134C426.817 7.52454 424.374 6.497 421.825 6.49412L156.82 6.49476Z" fill="#292A2E"/>
<path d="M211.046 491.56C210.956 491.56 210.866 491.54 210.784 491.502C210.702 491.464 210.629 491.408 210.57 491.339C210.51 491.27 210.467 491.189 210.441 491.101C210.416 491.013 210.409 490.92 210.422 490.83L231.49 343.451C231.501 343.366 231.528 343.285 231.57 343.212C231.612 343.138 231.667 343.074 231.734 343.023C231.801 342.972 231.877 342.934 231.958 342.913C232.039 342.892 232.123 342.887 232.206 342.899C232.288 342.911 232.368 342.94 232.44 342.984C232.511 343.028 232.574 343.085 232.623 343.154C232.673 343.222 232.708 343.3 232.728 343.382C232.747 343.465 232.75 343.55 232.737 343.634L211.666 491.013C211.644 491.164 211.57 491.303 211.456 491.403C211.342 491.503 211.197 491.559 211.046 491.56Z" fill="#292A2E"/>
<path d="M367.601 491.56C367.45 491.56 367.304 491.504 367.19 491.404C367.075 491.304 367.001 491.165 366.979 491.013L345.91 343.633C345.889 343.467 345.934 343.299 346.034 343.166C346.133 343.032 346.281 342.944 346.445 342.92C346.608 342.896 346.774 342.938 346.908 343.037C347.041 343.136 347.13 343.284 347.157 343.449L368.228 490.831C368.241 490.921 368.235 491.014 368.209 491.102C368.184 491.189 368.14 491.271 368.081 491.34C368.022 491.409 367.948 491.465 367.866 491.503C367.784 491.541 367.695 491.561 367.604 491.561L367.601 491.56Z" fill="#292A2E"/>
<g opacity="0.1">
<path d="M175.401 168.313L403.245 168.313C407.251 168.313 410.498 165.021 410.498 160.961V37.5633C410.498 33.5031 407.251 30.2117 403.245 30.2117L175.401 30.2117C171.395 30.2117 168.148 33.5031 168.148 37.5633L168.148 160.961C168.148 165.021 171.395 168.313 175.401 168.313Z" fill="#367CFF"/>
</g>
<g opacity="0.1">
<path d="M167.892 311.007V192.137C167.894 190.097 168.694 188.142 170.117 186.7C171.54 185.257 173.469 184.446 175.482 184.444H402.533C404.545 184.446 406.474 185.258 407.897 186.7C409.32 188.142 410.12 190.098 410.122 192.137V311.007C410.12 313.046 409.32 315.002 407.897 316.444C406.474 317.887 404.544 318.698 402.532 318.7H175.482C173.469 318.698 171.54 317.887 170.117 316.444C168.694 315.002 167.894 313.046 167.892 311.007Z" fill="#367CFF"/>
</g>
<path d="M381.091 301.156H385.598C386.276 301.156 386.826 300.598 386.826 299.911V212.652C386.826 211.964 386.276 211.407 385.598 211.407H381.091C380.413 211.407 379.864 211.964 379.864 212.652V299.911C379.864 300.598 380.413 301.156 381.091 301.156Z" fill="white"/>
<path opacity="0.3" d="M388.054 301.156H392.56C393.239 301.156 393.788 300.598 393.788 299.911V240.84C393.788 240.152 393.239 239.595 392.56 239.595H388.054C387.376 239.595 386.826 240.152 386.826 240.84V299.911C386.826 300.598 387.376 301.156 388.054 301.156Z" fill="#367CFF"/>
<path d="M325.376 301.155H329.882C330.56 301.155 331.11 300.598 331.11 299.911V291.044C331.11 290.356 330.56 289.799 329.882 289.799H325.376C324.698 289.799 324.148 290.356 324.148 291.044V299.911C324.148 300.598 324.698 301.155 325.376 301.155Z" fill="white"/>
<path opacity="0.3" d="M332.338 301.155H336.844C337.522 301.155 338.072 300.598 338.072 299.911V235.771C338.072 235.084 337.522 234.527 336.844 234.527H332.338C331.66 234.527 331.11 235.084 331.11 235.771V299.911C331.11 300.598 331.66 301.155 332.338 301.155Z" fill="#367CFF"/>
<path d="M353.234 301.155H357.74C358.418 301.155 358.968 300.598 358.968 299.911V248.68C358.968 247.992 358.418 247.435 357.74 247.435H353.234C352.556 247.435 352.006 247.992 352.006 248.68V299.911C352.006 300.598 352.556 301.155 353.234 301.155Z" fill="white"/>
<path opacity="0.3" d="M360.197 301.155H364.703C365.381 301.155 365.931 300.598 365.931 299.911V267.241C365.931 266.554 365.381 265.997 364.703 265.997H360.197C359.518 265.997 358.969 266.554 358.969 267.241V299.911C358.969 300.598 359.518 301.155 360.197 301.155Z" fill="#367CFF"/>
<path d="M241.801 301.155H246.307C246.985 301.155 247.535 300.598 247.535 299.911V230.009C247.535 229.321 246.985 228.764 246.307 228.764H241.801C241.123 228.764 240.573 229.321 240.573 230.009V299.911C240.573 300.598 241.123 301.155 241.801 301.155Z" fill="white"/>
<path opacity="0.3" d="M248.763 301.156H253.269C253.948 301.156 254.497 300.599 254.497 299.911V256.662C254.497 255.974 253.948 255.417 253.269 255.417H248.763C248.085 255.417 247.535 255.974 247.535 256.662V299.911C247.535 300.599 248.085 301.156 248.763 301.156Z" fill="#367CFF"/>
<path d="M297.518 301.155H302.024C302.702 301.155 303.252 300.598 303.252 299.911V241.301C303.252 240.614 302.702 240.056 302.024 240.056H297.518C296.839 240.056 296.29 240.614 296.29 241.301V299.911C296.29 300.598 296.839 301.155 297.518 301.155Z" fill="white"/>
<path opacity="0.3" d="M304.479 301.155H308.986C309.664 301.155 310.214 300.598 310.214 299.911V248.218C310.214 247.531 309.664 246.974 308.986 246.974H304.479C303.801 246.974 303.252 247.531 303.252 248.218V299.911C303.252 300.598 303.801 301.155 304.479 301.155Z" fill="#367CFF"/>
<path d="M269.659 301.156H274.166C274.844 301.156 275.394 300.598 275.394 299.911V212.652C275.394 211.964 274.844 211.407 274.166 211.407H269.659C268.981 211.407 268.432 211.964 268.432 212.652V299.911C268.432 300.598 268.981 301.156 269.659 301.156Z" fill="white"/>
<path opacity="0.3" d="M276.621 301.156H281.128C281.806 301.156 282.355 300.598 282.355 299.911V216.975C282.355 216.288 281.806 215.73 281.128 215.73H276.621C275.943 215.73 275.393 216.288 275.393 216.975V299.911C275.393 300.598 275.943 301.156 276.621 301.156Z" fill="#367CFF"/>
<path d="M213.943 301.156H218.449C219.128 301.156 219.677 300.598 219.677 299.911V212.652C219.677 211.964 219.128 211.407 218.449 211.407H213.943C213.265 211.407 212.715 211.964 212.715 212.652V299.911C212.715 300.598 213.265 301.156 213.943 301.156Z" fill="white"/>
<path opacity="0.3" d="M220.905 301.156H225.412C226.09 301.156 226.639 300.598 226.639 299.911V240.84C226.639 240.152 226.09 239.595 225.412 239.595H220.905C220.227 239.595 219.677 240.152 219.677 240.84V299.911C219.677 300.598 220.227 301.156 220.905 301.156Z" fill="#367CFF"/>
<path d="M186.085 301.155H190.591C191.27 301.155 191.819 300.598 191.819 299.911V248.68C191.819 247.992 191.27 247.435 190.591 247.435H186.085C185.407 247.435 184.857 247.992 184.857 248.68V299.911C184.857 300.598 185.407 301.155 186.085 301.155Z" fill="white"/>
<path opacity="0.3" d="M193.047 301.155H197.553C198.232 301.155 198.781 300.598 198.781 299.911V267.241C198.781 266.554 198.232 265.997 197.553 265.997H193.047C192.369 265.997 191.819 266.554 191.819 267.241V299.911C191.819 300.598 192.369 301.155 193.047 301.155Z" fill="#367CFF"/>
<path opacity="0.2" d="M393.851 74.5314V150.926C393.851 151.251 393.724 151.563 393.497 151.792C393.27 152.022 392.963 152.151 392.643 152.152H186.003C185.682 152.151 185.375 152.022 185.148 151.792C184.921 151.563 184.794 151.251 184.794 150.926V110.37C184.794 110.155 184.85 109.943 184.956 109.757C185.062 109.571 185.215 109.416 185.398 109.308L221.984 87.8961C222.171 87.787 222.383 87.7304 222.598 87.7321C222.813 87.7337 223.024 87.7937 223.209 87.9057L239.679 97.8832C239.885 98.0082 240.123 98.0681 240.362 98.0554C240.602 98.0426 240.833 97.9578 241.024 97.8117L258.318 84.6527C258.494 84.5182 258.704 84.4353 258.923 84.4127C259.143 84.3902 259.364 84.429 259.563 84.5249L280.905 94.8141C281.133 94.9241 281.389 94.959 281.637 94.9139C281.886 94.8688 282.114 94.7459 282.291 94.5625L305.985 69.9016C306.19 69.6881 306.464 69.5575 306.756 69.534C307.049 69.5105 307.34 69.5957 307.575 69.7739L322.961 81.452C323.184 81.6214 323.457 81.7075 323.735 81.6959C324.014 81.6843 324.28 81.5755 324.488 81.3881L334.554 72.32C334.757 72.1368 335.015 72.0285 335.287 72.0123C335.558 71.9962 335.827 72.0734 336.049 72.2312L350.336 82.3403C350.542 82.4854 350.786 82.5623 351.037 82.5605C351.287 82.5586 351.531 82.4781 351.734 82.3301L376.437 64.3081C376.627 64.1693 376.853 64.0894 377.087 64.0781C377.321 64.0667 377.553 64.1244 377.755 64.2442L393.253 73.4714C393.435 73.5796 393.587 73.7344 393.692 73.9205C393.796 74.1065 393.851 74.3172 393.851 74.5314Z" fill="#367CFF"/>
<path opacity="0.61" d="M185.489 109.317C185.595 109.317 185.699 109.288 185.791 109.234L222.49 87.7556L239.962 98.3404C240.065 98.4027 240.184 98.4326 240.304 98.4262C240.424 98.4198 240.539 98.3775 240.635 98.3047L258.87 84.4291L281.323 95.2541C281.437 95.3087 281.565 95.3258 281.69 95.3029C281.814 95.28 281.928 95.2182 282.016 95.1263L306.683 69.4507L323.282 82.0503C323.394 82.135 323.53 82.1781 323.67 82.1723C323.809 82.1665 323.941 82.1121 324.046 82.0184L335.207 71.9617L350.588 82.8486C350.691 82.9211 350.813 82.9595 350.938 82.9586C351.064 82.9577 351.185 82.9175 351.287 82.8435L377.006 64.0839L392.85 73.516C392.919 73.5568 392.995 73.5836 393.073 73.5947C393.152 73.6059 393.232 73.6012 393.309 73.581C393.385 73.5609 393.458 73.5255 393.521 73.4771C393.584 73.4286 393.638 73.368 393.678 73.2986C393.718 73.2292 393.745 73.1525 393.756 73.0728C393.767 72.9932 393.762 72.9121 393.742 72.8342C393.722 72.7563 393.687 72.6831 393.639 72.6189C393.592 72.5547 393.532 72.5006 393.463 72.4598L377.279 62.8246C377.178 62.7645 377.062 62.7355 376.945 62.741C376.828 62.7466 376.715 62.7865 376.619 62.8559L350.928 81.595L335.507 70.6832C335.396 70.6041 335.262 70.5655 335.126 70.5735C334.99 70.5815 334.861 70.6357 334.76 70.7273L323.609 80.7725L306.977 68.1499C306.86 68.0607 306.714 68.018 306.568 68.0297C306.422 68.0415 306.285 68.1069 306.182 68.2137L281.448 93.9609L259.055 83.1647C258.955 83.1167 258.845 83.0972 258.735 83.1085C258.625 83.1197 258.52 83.1613 258.432 83.2285L240.229 97.0798L222.801 86.5212C222.709 86.4653 222.604 86.4355 222.496 86.4347C222.388 86.4339 222.282 86.4622 222.189 86.5167L185.182 108.175C185.067 108.242 184.977 108.347 184.926 108.471C184.875 108.596 184.867 108.734 184.901 108.865C184.936 108.995 185.012 109.11 185.117 109.192C185.223 109.274 185.352 109.319 185.485 109.319L185.489 109.317Z" fill="#367CFF"/>
<path d="M51.1302 463.162C51.1302 463.162 53.9746 478.105 67.7795 478.94C81.5845 479.776 78.5908 490.921 78.5908 490.921H25.8362V464.204L51.1302 463.162Z" fill="#367CFF"/>
<path d="M22.2585 190.523C22.2585 190.523 26.2035 186.03 26.1689 196.222C26.0385 234.237 23.5078 472.7 23.5078 472.7L58.1736 472.405L79.173 188.979L22.2585 190.523Z" fill="#262626"/>
<path d="M110.325 463.162C110.325 463.162 113.169 478.105 126.974 478.94C140.779 479.776 137.785 490.921 137.785 490.921H85.0305V464.204L110.325 463.162Z" fill="#367CFF"/>
<path d="M117.03 193.475C117.03 193.475 121.36 323.402 120.91 329.753L116.838 471.714L82.7456 472.352L77.2476 324.616C77.2476 324.616 73.6441 283.863 63.9303 246.021C58.9606 226.599 55.9697 206.712 55.0046 186.671L117.03 193.475Z" fill="#262626"/>
<path d="M72.0535 285.593L74.896 241.524C74.896 241.524 77.816 259.845 77.816 275.636C77.816 283.355 76.2479 313.915 76.2479 313.915L72.0535 285.593Z" fill="#0A0A0A"/>
<path d="M21.882 190.519L21.7686 190.525C21.7686 190.525 21.8505 188.309 21.882 190.519Z" fill="#333333"/>
<path d="M22.0243 190.519L21.9109 190.525C21.9109 190.525 21.9928 188.309 22.0243 190.519Z" fill="#333333"/>
<path d="M211.982 85.0627C211.773 84.6434 211.441 84.3003 211.032 84.0807C210.623 83.861 210.156 83.7757 209.697 83.8365C209.701 83.8085 209.698 83.7798 209.689 83.7531C209.679 83.7263 209.664 83.7023 209.643 83.6831C209.623 83.6638 209.598 83.6499 209.571 83.6426C209.544 83.6353 209.515 83.6348 209.488 83.6411L211.038 82.5153C211.502 82.1935 211.835 81.7121 211.976 81.1603C212.118 80.6086 212.057 80.0237 211.805 79.5138C211.541 79.0182 211.105 78.6398 210.581 78.4521C210.057 78.2643 209.483 78.2806 208.97 78.4978C208.974 78.4761 208.959 78.4544 208.956 78.434L209.593 77.971C210.028 77.6659 210.347 77.2176 210.494 76.702C210.641 76.1864 210.608 75.6351 210.4 75.1413C210.264 74.8344 210.062 74.5621 209.809 74.3439C209.556 74.1257 209.258 73.9672 208.937 73.8797C208.617 73.7922 208.281 73.778 207.954 73.838C207.627 73.8981 207.318 74.0309 207.047 74.2269L205.578 75.2952C205.573 75.2863 205.578 75.2761 205.572 75.2678C205.566 75.2595 205.55 75.2563 205.542 75.2473C205.879 74.8626 206.078 74.3729 206.105 73.8587C206.131 73.3445 205.985 72.8363 205.689 72.4177C204.996 71.2861 203.394 71.5173 202.444 72.2076L193.793 78.2654L195.339 75.626C195.65 75.1184 195.76 74.5097 195.646 73.923C195.531 73.3364 195.202 72.8157 194.723 72.4662C194.47 72.2944 194.185 72.1767 193.885 72.1203C193.586 72.0639 193.278 72.0699 192.981 72.138C192.684 72.2062 192.404 72.3349 192.157 72.5165C191.911 72.6981 191.703 72.9287 191.548 73.1942L183.106 87.603C182.116 89.2933 181.814 91.3085 182.266 93.2203C182.718 95.1322 183.888 96.7901 185.526 97.8417C187.427 99.0616 189.643 99.6784 191.892 99.613C194.14 99.5476 196.318 98.8029 198.146 97.4745L211.211 87.9823C211.645 87.655 211.958 87.1885 212.098 86.6585C212.238 86.1285 212.197 85.5662 211.982 85.0627Z" fill="#E98862"/>
<g opacity="0.25">
<path d="M197.017 81.2803C197.049 81.3245 197.097 81.3543 197.15 81.3634C197.203 81.3725 197.258 81.3601 197.302 81.3289L205.522 75.5578C205.545 75.5421 205.564 75.5221 205.578 75.499C205.593 75.4758 205.603 75.45 205.608 75.4229C205.613 75.3958 205.612 75.368 205.607 75.3411C205.601 75.3141 205.59 75.2886 205.575 75.266C205.559 75.2433 205.539 75.224 205.516 75.2091C205.494 75.1942 205.468 75.184 205.441 75.179C205.415 75.1741 205.387 75.1746 205.361 75.1804C205.334 75.1862 205.309 75.1973 205.287 75.213L197.067 80.984C197.021 81.0158 196.991 81.0643 196.981 81.119C196.971 81.1737 196.983 81.2301 197.014 81.2759L197.017 81.2803Z" fill="#0C0C0C"/>
</g>
<g opacity="0.25">
<path d="M199.428 85.025C199.46 85.0694 199.508 85.0994 199.561 85.1086C199.614 85.1178 199.669 85.1055 199.713 85.0742L208.887 78.6332C208.932 78.6014 208.963 78.5528 208.972 78.4981C208.982 78.4434 208.97 78.3871 208.939 78.3414C208.906 78.2972 208.859 78.2671 208.805 78.2573C208.752 78.2474 208.697 78.2586 208.651 78.2884L199.478 84.7293C199.433 84.761 199.402 84.8096 199.392 84.8643C199.382 84.919 199.394 84.9754 199.425 85.0212L199.428 85.025Z" fill="#0C0C0C"/>
</g>
<g opacity="0.25">
<path d="M202.016 89.0967C202.048 89.1409 202.096 89.1707 202.149 89.1798C202.203 89.1888 202.257 89.1764 202.302 89.1452L209.619 84.0077C209.664 83.976 209.695 83.9274 209.705 83.8727C209.715 83.818 209.703 83.7615 209.671 83.7158C209.64 83.6701 209.592 83.6388 209.538 83.6289C209.484 83.6189 209.429 83.6311 209.383 83.6628L202.066 88.8004C202.02 88.8321 201.99 88.8806 201.98 88.9353C201.97 88.99 201.982 89.0464 202.013 89.0922L202.016 89.0967Z" fill="#0C0C0C"/>
</g>
<path d="M178.124 84.3193L153.329 127.126L123.074 86.8993L97.9478 109.862L140.857 166.193L141.138 166.594C142.856 168.979 145.144 170.881 147.787 172.121C150.43 173.361 153.341 173.899 156.246 173.683C159.151 173.468 161.954 172.506 164.391 170.889C166.828 169.272 168.818 167.053 170.175 164.44L205.434 99.7148L178.124 84.3193Z" fill="#367CFF"/>
<path d="M150.899 132.274C150.849 132.274 150.799 132.262 150.755 132.239C150.718 132.22 150.685 132.193 150.658 132.162C150.631 132.13 150.611 132.093 150.598 132.053C150.586 132.013 150.581 131.971 150.584 131.929C150.587 131.887 150.599 131.846 150.618 131.809L153.049 126.981C153.067 126.944 153.093 126.911 153.125 126.883C153.156 126.856 153.193 126.835 153.232 126.823C153.272 126.81 153.313 126.805 153.354 126.808C153.396 126.811 153.436 126.823 153.473 126.842C153.509 126.861 153.542 126.887 153.569 126.919C153.596 126.951 153.616 126.988 153.629 127.028C153.642 127.068 153.647 127.11 153.643 127.152C153.64 127.194 153.629 127.234 153.61 127.272L151.179 132.1C151.153 132.152 151.112 132.196 151.063 132.227C151.013 132.258 150.957 132.274 150.899 132.274Z" fill="#0C0C0C"/>
<path d="M121.328 126.883L120.571 140.403L121.2 140.439L121.957 126.919L121.328 126.883Z" fill="#0C0C0C"/>
<path d="M41.4316 29.0329C41.4316 29.0329 40.2699 44.0822 36.8648 49.5072C27.0622 65.1255 24.0717 82.7892 33.6034 92.1479C43.1351 101.507 104.603 102.356 109.499 81.1454C113.624 63.2882 105.233 61.2645 103.354 46.4693C102.505 39.7761 100.117 25.7333 100.117 25.7333" fill="#0A0A0A"/>
<path d="M93.8517 77.7544C93.7459 77.7404 92.5684 97.546 69.8706 95.8192C54.1574 94.6257 48.5549 77.7263 48.1946 77.7263C49.8886 77.3617 52.7418 76.8323 53.494 76.4236C55.968 75.0761 59.0298 73.6738 59.8273 68.8031C60.2872 65.9933 59.5073 51.6337 59.7473 48.7938L83.8671 54.2507C83.53 60.2497 81.1713 74.1565 89.4387 76.6177C90.8146 77.0245 92.2963 77.3994 93.8517 77.7544Z" fill="#E98862"/>
<path opacity="0.52" d="M84.2053 70.9342C83.8276 69.7 83.5843 68.4276 83.4796 67.1397C83.2143 64.2006 83.2671 61.241 83.6371 58.3135C78.7347 57.6429 74.1162 55.5917 70.3065 52.3931C69.8586 54.07 67.3954 61.3974 68.0776 62.99C69.3666 66.0017 75.4246 70.9342 84.2053 70.9342Z" fill="#0C0C0C"/>
<path d="M81.0082 64.7009C71.489 65.5221 59.2295 61.5219 56.828 48.656L54.6602 37.0468C52.258 24.1809 56.9773 12.4722 68.9281 10.1796C80.8784 7.88699 91.7583 16.6033 94.1604 29.4692L95.1199 34.6087C96.0416 39.5457 97.9933 63.2359 81.0082 64.7009Z" fill="#E98862"/>
<path d="M91.7134 35.1693C92.5408 35.1693 93.2116 34.4894 93.2116 33.6507C93.2116 32.812 92.5408 32.1321 91.7134 32.1321C90.8861 32.1321 90.2153 32.812 90.2153 33.6507C90.2153 34.4894 90.8861 35.1693 91.7134 35.1693Z" fill="#0C0C0C"/>
<path d="M76.3665 37.2474C77.1939 37.2474 77.8646 36.5675 77.8646 35.7288C77.8646 34.8901 77.1939 34.2102 76.3665 34.2102C75.5391 34.2102 74.8684 34.8901 74.8684 35.7288C74.8684 36.5675 75.5391 37.2474 76.3665 37.2474Z" fill="#0C0C0C"/>
<path d="M84.7886 46.8615H84.812C85.2961 46.7649 85.7745 46.6413 86.2452 46.4911C86.9476 46.2619 87.8687 45.8832 87.7483 45.2395C87.6116 44.5063 84.1542 36.9772 83.7599 36.1209C83.7255 36.0461 83.6631 35.9882 83.5866 35.96C83.5101 35.9318 83.4257 35.9356 83.3519 35.9705C83.2782 36.0054 83.2211 36.0685 83.1933 36.1461C83.1655 36.2236 83.1692 36.3092 83.2036 36.384C84.6784 39.5904 87.0535 44.862 87.1448 45.3557C87.0661 45.5843 85.8993 46.0192 84.6979 46.2497C84.6191 46.2637 84.5487 46.3084 84.5019 46.3742C84.455 46.44 84.4355 46.5218 84.4473 46.6021C84.4591 46.6823 84.5015 46.7547 84.5652 46.8038C84.629 46.8529 84.7092 46.8747 84.7886 46.8647V46.8615Z" fill="#0C0C0C"/>
<path d="M83.019 52.4167C84.9682 52.16 86.8307 51.4427 88.4564 50.3227C88.5247 50.2778 88.5725 50.2072 88.5894 50.1264C88.6063 50.0457 88.5909 49.9615 88.5465 49.8923C88.5021 49.8231 88.4325 49.7746 88.3528 49.7575C88.2732 49.7404 88.1901 49.756 88.1219 49.801C84.6034 52.1249 81.1076 52.5004 78.0125 50.8866C77.9499 50.8523 77.8855 50.8214 77.8197 50.794C77.7433 50.7667 77.6594 50.7712 77.5863 50.8063C77.5131 50.8414 77.4567 50.9045 77.4292 50.9816C77.4016 51.0588 77.4053 51.1439 77.4394 51.2183C77.4735 51.2927 77.5352 51.3505 77.6112 51.379C77.6357 51.3892 77.6742 51.4109 77.7321 51.4428C79.3595 52.2937 81.2003 52.6328 83.019 52.4167Z" fill="#0C0C0C"/>
<path d="M45.1001 41.0929L55.8099 39.1018C63.9229 35.774 66.3767 21.5364 66.3767 21.5364C66.3767 21.5364 76.2348 31.2732 100.117 25.7365C100.117 25.7365 95.3291 -8.02452 60.046 1.78889C48.669 4.95444 40.5037 16.5757 41.5243 32.1072C42.2337 42.9934 45.1001 41.0929 45.1001 41.0929Z" fill="#0A0A0A"/>
<path d="M58.3014 52.4333C54.6701 53.13 50.9904 49.7562 50.3005 46.0747C49.6107 42.3932 52.1785 39.7985 55.8104 39.1018L58.1414 41.2092L61.4236 51.8343L58.3014 52.4333Z" fill="#E98862"/>
<path d="M85.9485 29.9647C87.0079 29.2716 88.2316 28.8799 89.4916 28.8306C90.1119 28.8029 90.7328 28.8694 91.3337 29.0279C91.9286 29.1829 92.502 29.4131 93.0403 29.7131C93.1162 29.751 93.1742 29.8177 93.2018 29.8988C93.2294 29.9798 93.2243 30.0687 93.1875 30.1459C93.1508 30.2231 93.0855 30.2825 93.0057 30.3112C92.926 30.3398 92.8383 30.3353 92.7618 30.2987L92.7392 30.2879C92.2417 30.0402 91.7155 29.8567 91.173 29.7419C90.6365 29.6255 90.0858 29.5921 89.5395 29.6429C88.4559 29.7348 87.4156 30.1157 86.5243 30.747L86.4953 30.7681C86.4441 30.8058 86.3861 30.833 86.3245 30.848C86.263 30.863 86.1991 30.8655 86.1366 30.8555C86.074 30.8455 86.0141 30.8231 85.9601 30.7896C85.9061 30.7561 85.8591 30.7121 85.8219 30.6602C85.7847 30.6083 85.7579 30.5494 85.7431 30.487C85.7283 30.4246 85.7258 30.3599 85.7357 30.2965C85.7455 30.2331 85.7676 30.1723 85.8007 30.1176C85.8338 30.0628 85.8772 30.0153 85.9284 29.9775L85.9485 29.9647Z" fill="#0C0C0C"/>
<path d="M76.394 32.2446C75.3379 31.983 74.2324 32.0088 73.1893 32.3193C72.6618 32.4724 72.1601 32.7053 71.7012 33.0102C71.236 33.3168 70.8108 33.6815 70.4356 34.0959L70.4186 34.1131C70.3598 34.1728 70.2805 34.2071 70.1973 34.2086C70.1141 34.2101 70.0336 34.1788 69.9728 34.1213C69.9119 34.0638 69.8756 33.9845 69.8713 33.9003C69.867 33.8161 69.8952 33.7335 69.9499 33.6699C70.3449 33.1929 70.7976 32.7683 71.2974 32.4061C71.8006 32.0375 72.3558 31.7479 72.9442 31.5472C74.1369 31.1316 75.4178 31.0487 76.6529 31.3071C76.7783 31.3344 76.8877 31.411 76.9573 31.5201C77.0269 31.6292 77.0509 31.7618 77.024 31.8889C76.9971 32.0159 76.9215 32.1269 76.8139 32.1974C76.7063 32.268 76.5754 32.2923 76.4501 32.265L76.4306 32.2605L76.394 32.2446Z" fill="#0C0C0C"/>
<path d="M83.4336 55.3376C83.7866 55.2967 84.1356 55.2256 84.4769 55.1249C84.5161 55.1141 84.5529 55.0955 84.585 55.0702C84.6171 55.0449 84.6439 55.0134 84.6639 54.9774C84.6839 54.9415 84.6966 54.9019 84.7013 54.861C84.706 54.82 84.7027 54.7785 84.6915 54.7389C84.6802 54.6992 84.6613 54.6623 84.6359 54.6301C84.6104 54.5979 84.5789 54.5712 84.5431 54.5515C84.5074 54.5318 84.4681 54.5195 84.4277 54.5154C84.3872 54.5112 84.3463 54.5152 84.3074 54.5272C82.253 55.1262 81.085 54.3324 81.0365 54.2979C80.9697 54.2505 80.887 54.232 80.8066 54.2463C80.7263 54.2607 80.6549 54.3068 80.6081 54.3746C80.5613 54.4423 80.543 54.5261 80.5572 54.6076C80.5713 54.689 80.6169 54.7614 80.6837 54.8088C81.5127 55.3014 82.4842 55.4882 83.4336 55.3376Z" fill="#0C0C0C"/>
<path d="M55.8364 38.9646L55.73 38.6638C69.3031 33.7242 65.9837 20.2222 65.949 20.0862L66.2533 20.0057C66.2892 20.1437 69.6842 33.9247 55.8364 38.9646Z" fill="#0C0C0C"/>
<path opacity="0.1" d="M75.1569 47.8093C76.724 47.6383 77.8942 46.5552 77.7705 45.3899C77.6468 44.2246 76.2761 43.4185 74.7091 43.5895C73.142 43.7604 71.9718 44.8436 72.0955 46.0088C72.2192 47.1741 73.5899 47.9802 75.1569 47.8093Z" fill="#0C0C0C"/>
<path opacity="0.1" d="M91.7444 43.3517C91.8704 44.5152 93.2412 45.3199 94.8086 45.1513C95.0794 45.1215 95.3465 45.0635 95.6056 44.9782C95.6938 43.5937 95.7133 42.261 95.6875 41.0266C95.2542 40.9117 94.8037 40.8796 94.3588 40.932C92.7914 41.1006 91.6221 42.1837 91.7444 43.3517Z" fill="#0C0C0C"/>
<path d="M122.052 121.357C121.337 129.871 117.859 182.988 117.172 193.475H26.2192C25.6837 184.017 19.501 142.658 17.4718 124.162C15.5346 106.512 11.7339 97.6757 14.5197 92.4577C19.072 83.9298 31.5117 79.0023 39.9939 77.8382C45.1737 77.1274 52.9635 76.6178 52.9635 76.6178C52.9635 76.6178 53.6231 90.1434 69.3514 90.8963C90.7615 91.9181 89.3321 76.6178 89.4379 76.6178C92.9066 76.6178 112.721 78.8433 117.569 81.756C130.778 89.6855 123.569 103.315 122.052 121.357Z" fill="#367CFF"/>
<path d="M181.089 127.304L172.322 170.499C172.144 171.376 171.675 172.165 170.993 172.734C170.31 173.302 169.456 173.617 168.573 173.625L108.204 174.146C107.628 174.151 107.058 174.025 106.536 173.778C106.014 173.531 105.554 173.168 105.188 172.718C104.822 172.267 104.561 171.738 104.422 171.172C104.284 170.605 104.272 170.014 104.388 169.442L113.155 126.247C113.334 125.37 113.803 124.582 114.485 124.013C115.168 123.444 116.022 123.13 116.905 123.122L177.274 122.601C177.85 122.596 178.42 122.722 178.942 122.969C179.463 123.216 179.924 123.578 180.29 124.029C180.655 124.48 180.917 125.008 181.055 125.575C181.194 126.142 181.205 126.732 181.089 127.304Z" fill="#292A2E"/>
<path d="M124.797 157.986C124.829 158.555 124.657 159.116 124.314 159.567C123.97 160.018 123.477 160.327 122.926 160.439L121.067 160.854C121.1 160.865 121.13 160.884 121.155 160.91C121.179 160.935 121.196 160.967 121.206 161.001C121.21 161.041 121.201 161.081 121.181 161.116C121.627 161.243 122.024 161.508 122.315 161.874C122.607 162.241 122.778 162.69 122.806 163.159C122.809 163.707 122.629 164.239 122.296 164.67C121.964 165.101 121.497 165.406 120.973 165.535L105.28 169.066C104.477 169.249 103.658 169.341 102.835 169.341C101.004 169.341 99.1996 168.889 97.5786 168.024C95.9576 167.16 94.5683 165.909 93.5304 164.379C92.4298 162.76 91.9958 160.77 92.3205 158.832C92.6452 156.894 93.7031 155.161 95.2691 154.002L108.619 144.11C108.912 143.892 109.254 143.749 109.614 143.695L108.385 149.742L108.713 149.666L108.782 149.653L119.02 147.539C120.16 147.284 121.722 147.705 121.924 149.021C122.032 149.524 121.969 150.05 121.745 150.513C121.52 150.975 121.148 151.348 120.689 151.569C120.695 151.575 120.708 151.581 120.708 151.594C120.708 151.607 120.702 151.613 120.702 151.626L122.472 151.23C122.796 151.157 123.132 151.158 123.455 151.233C123.779 151.308 124.082 151.454 124.343 151.662C124.604 151.869 124.816 152.133 124.964 152.434C125.112 152.735 125.193 153.065 125.2 153.401C125.2 153.938 125.017 154.459 124.681 154.874C124.346 155.29 123.879 155.575 123.36 155.681L122.598 155.854C122.592 155.879 122.598 155.905 122.585 155.924C123.141 155.928 123.675 156.142 124.083 156.523C124.492 156.904 124.746 157.425 124.797 157.986Z" fill="#E98862"/>
<g opacity="0.25">
<path d="M110.51 153.722C110.523 153.775 110.555 153.822 110.6 153.851C110.646 153.881 110.701 153.891 110.754 153.88L120.549 151.845C120.576 151.84 120.603 151.83 120.626 151.815C120.65 151.8 120.67 151.78 120.686 151.757C120.702 151.733 120.713 151.707 120.719 151.679C120.724 151.651 120.724 151.623 120.719 151.595C120.713 151.567 120.702 151.541 120.686 151.517C120.67 151.494 120.65 151.474 120.626 151.459C120.602 151.444 120.576 151.434 120.548 151.43C120.521 151.425 120.493 151.426 120.465 151.433L110.67 153.47C110.617 153.481 110.569 153.513 110.539 153.56C110.509 153.606 110.498 153.663 110.509 153.718L110.51 153.722Z" fill="#0C0C0C"/>
</g>
<g opacity="0.25">
<path d="M111.277 158.126C111.289 158.179 111.321 158.226 111.367 158.255C111.412 158.285 111.467 158.295 111.52 158.284L122.452 156.012C122.506 156.001 122.553 155.968 122.583 155.922C122.613 155.876 122.624 155.819 122.613 155.764C122.6 155.711 122.568 155.664 122.523 155.634C122.477 155.604 122.422 155.592 122.369 155.601L111.437 157.874C111.383 157.885 111.336 157.917 111.306 157.964C111.276 158.01 111.265 158.067 111.276 158.121L111.277 158.126Z" fill="#0C0C0C"/>
</g>
<g opacity="0.25">
<path d="M112.08 162.901C112.093 162.954 112.125 163 112.17 163.03C112.216 163.06 112.271 163.07 112.324 163.059L121.043 161.247C121.071 161.242 121.097 161.232 121.121 161.217C121.145 161.202 121.165 161.182 121.181 161.159C121.197 161.135 121.208 161.109 121.213 161.081C121.219 161.054 121.219 161.025 121.213 160.997C121.208 160.969 121.197 160.943 121.181 160.92C121.165 160.896 121.144 160.877 121.121 160.861C121.097 160.846 121.071 160.836 121.043 160.832C121.015 160.827 120.987 160.829 120.96 160.836L112.24 162.648C112.214 162.654 112.189 162.665 112.166 162.68C112.144 162.696 112.124 162.715 112.109 162.738C112.094 162.761 112.084 162.787 112.079 162.814C112.074 162.841 112.074 162.869 112.079 162.896L112.08 162.901Z" fill="#0C0C0C"/>
</g>
<path d="M104.308 175.361L19.1679 190.956C16.5111 191.25 13.8234 190.915 11.3157 189.978C8.808 189.041 6.54856 187.528 4.71468 185.558C2.88079 183.587 1.52235 181.213 0.745949 178.621C-0.030449 176.028 -0.203679 173.289 0.239854 170.618L12.1586 98.8022C12.9197 94.2166 15.4466 90.1252 19.1836 87.4282C22.9205 84.7312 27.5614 83.6494 32.0851 84.4209C36.6089 85.1924 40.6451 87.7539 43.3057 91.5419C45.9664 95.33 47.0335 100.034 46.2725 104.62L38.1456 154.057L100.564 146.113L104.308 175.361Z" fill="#367CFF"/>
<path d="M19.1671 191.276C19.0885 191.276 19.0128 191.246 18.9549 191.192C18.8969 191.138 18.861 191.064 18.854 190.985C18.8471 190.905 18.8697 190.826 18.9173 190.763C18.965 190.699 19.0343 190.656 19.1117 190.642L103.957 175.1L100.294 146.468L38.1839 154.374C38.1353 154.381 38.0857 154.376 38.0394 154.359C37.993 154.343 37.9512 154.315 37.9174 154.279C37.8834 154.243 37.858 154.2 37.8435 154.152C37.8289 154.104 37.8256 154.054 37.8337 154.005L42.9996 122.409C43.0063 122.367 43.021 122.328 43.0428 122.292C43.0647 122.257 43.0933 122.226 43.1269 122.201C43.1605 122.177 43.1986 122.159 43.2389 122.15C43.2792 122.14 43.321 122.139 43.3618 122.146C43.4027 122.153 43.4419 122.168 43.4771 122.19C43.5123 122.212 43.5428 122.241 43.5669 122.275C43.591 122.309 43.6082 122.348 43.6176 122.389C43.6269 122.43 43.6282 122.472 43.6214 122.514L38.5241 153.687L100.525 145.794C100.608 145.783 100.691 145.806 100.757 145.858C100.823 145.91 100.866 145.985 100.877 146.069L104.62 175.317C104.631 175.398 104.61 175.481 104.562 175.547C104.514 175.613 104.443 175.658 104.364 175.673L19.2238 191.271C19.205 191.274 19.1861 191.276 19.1671 191.276Z" fill="#0C0C0C"/>
<path d="M38.0956 153.743L32.6189 154.632L32.7186 155.263L38.1953 154.374L38.0956 153.743Z" fill="#0C0C0C"/>
<path d="M484.959 491.818H5.90413C5.78717 491.818 5.675 491.771 5.5923 491.687C5.5096 491.603 5.46313 491.489 5.46313 491.371C5.46313 491.252 5.5096 491.139 5.5923 491.055C5.675 490.971 5.78717 490.924 5.90413 490.924H484.959C485.017 490.924 485.075 490.935 485.128 490.958C485.182 490.98 485.23 491.013 485.271 491.055C485.312 491.096 485.345 491.146 485.367 491.2C485.389 491.254 485.4 491.312 485.4 491.371C485.4 491.43 485.389 491.488 485.367 491.542C485.345 491.596 485.312 491.645 485.271 491.687C485.23 491.728 485.182 491.761 485.128 491.784C485.075 491.806 485.017 491.818 484.959 491.818Z" fill="#292A2E"/>
<path d="M462.2 422.975C462.132 422.975 462.065 422.962 462.002 422.935C461.939 422.909 461.882 422.87 461.834 422.821C461.105 422.082 459.915 408.512 456.712 368.11C455.401 351.578 454.162 335.963 453.259 326.473C453.196 325.795 452.935 325.716 452.85 325.69C451.613 325.312 447.852 328.318 445.752 330.951C445.665 331.06 445.54 331.129 445.403 331.143C445.267 331.158 445.13 331.117 445.023 331.03C444.916 330.942 444.848 330.815 444.834 330.676C444.819 330.538 444.86 330.399 444.946 330.291C446.332 328.55 450.861 323.987 453.148 324.685C453.492 324.804 453.789 325.033 453.994 325.337C454.2 325.641 454.304 326.004 454.29 326.372C455.194 335.87 456.432 351.489 457.744 368.025C459.691 392.577 461.896 420.39 462.621 422.143C462.676 422.222 462.709 422.314 462.716 422.41C462.722 422.506 462.703 422.602 462.66 422.688C462.616 422.774 462.55 422.845 462.469 422.896C462.388 422.946 462.295 422.973 462.2 422.973V422.975Z" fill="#494949"/>
<path d="M451.928 343.886C460.522 336.903 463.37 326.035 458.29 319.611C453.21 313.187 442.125 313.639 433.532 320.622C424.939 327.604 422.09 338.473 427.17 344.897C432.25 351.321 443.335 350.868 451.928 343.886Z" fill="#0CBC8B"/>
<path opacity="0.2" d="M451.928 343.886C460.522 336.903 463.37 326.035 458.29 319.611C453.21 313.187 442.125 313.639 433.532 320.622C424.939 327.604 422.09 338.473 427.17 344.897C432.25 351.321 443.335 350.868 451.928 343.886Z" fill="white"/>
<path d="M429.579 346.531C429.53 346.531 429.482 346.517 429.44 346.491C429.399 346.464 429.365 346.426 429.345 346.381C429.324 346.336 429.316 346.285 429.322 346.236C429.329 346.186 429.349 346.14 429.38 346.101L453.871 316.164C453.915 316.111 453.978 316.077 454.046 316.071C454.115 316.064 454.183 316.085 454.236 316.13C454.289 316.174 454.322 316.238 454.328 316.308C454.335 316.377 454.314 316.446 454.27 316.5L429.778 346.437C429.754 346.466 429.723 346.49 429.689 346.506C429.655 346.523 429.617 346.531 429.579 346.531Z" fill="white"/>
<path d="M467.542 416.557C467.484 416.557 467.426 416.547 467.372 416.528C467.307 416.505 467.248 416.47 467.197 416.424C467.147 416.378 467.105 416.323 467.075 416.261C467.046 416.199 467.029 416.131 467.025 416.063C467.021 415.994 467.03 415.925 467.053 415.86L476.251 389.042C476.521 388.253 476.983 387.547 477.593 386.986C478.203 386.426 478.942 386.029 479.742 385.834C480.542 385.638 481.378 385.649 482.173 385.865C482.968 386.082 483.697 386.498 484.293 387.074L489.156 391.784C489.255 391.88 489.313 392.012 489.316 392.152C489.319 392.291 489.268 392.426 489.173 392.526C489.078 392.627 488.947 392.685 488.81 392.688C488.673 392.692 488.54 392.639 488.44 392.543L483.577 387.833C483.107 387.378 482.532 387.05 481.904 386.879C481.276 386.708 480.616 386.699 479.985 386.854C479.353 387.009 478.769 387.321 478.288 387.764C477.806 388.206 477.442 388.764 477.229 389.387L468.031 416.208C467.995 416.31 467.929 416.399 467.841 416.461C467.753 416.524 467.649 416.557 467.542 416.557Z" fill="#494949"/>
<path d="M502.746 406.633C509.114 401.523 508.736 390.284 501.901 381.531C495.065 372.777 484.361 369.823 477.993 374.933C471.624 380.043 472.003 391.281 478.838 400.035C485.673 408.789 496.377 411.743 502.746 406.633Z" fill="#0CBC8B"/>
<path d="M458.021 421.265C457.904 421.265 457.791 421.225 457.7 421.152C457.608 421.079 457.544 420.977 457.517 420.862L442.082 355.43C441.977 354.984 441.752 354.576 441.433 354.251C441.114 353.925 440.712 353.696 440.273 353.587C439.833 353.478 439.372 353.494 438.941 353.634C438.51 353.773 438.125 354.031 437.829 354.378L433.07 359.953C432.98 360.058 432.853 360.123 432.716 360.133C432.579 360.143 432.443 360.097 432.34 360.006C432.236 359.915 432.172 359.786 432.162 359.647C432.152 359.508 432.197 359.371 432.287 359.266L437.046 353.691C437.467 353.198 438.013 352.833 438.626 352.634C439.239 352.436 439.893 352.413 440.518 352.567C441.143 352.722 441.713 353.048 442.167 353.51C442.621 353.972 442.94 354.552 443.089 355.186L458.524 420.618C458.54 420.685 458.543 420.755 458.532 420.823C458.522 420.891 458.498 420.956 458.462 421.015C458.427 421.074 458.38 421.125 458.325 421.165C458.27 421.206 458.207 421.235 458.141 421.251C458.102 421.26 458.061 421.265 458.021 421.265Z" fill="#494949"/>
<path d="M452.327 374.491C454.204 363.49 449.237 353.435 441.234 352.032C433.23 350.629 425.221 358.41 423.344 369.411C421.468 380.411 426.434 390.467 434.438 391.869C442.441 393.272 450.45 385.492 452.327 374.491Z" fill="#0CBC8B"/>
<path d="M462.201 422.975C462.18 422.975 462.159 422.974 462.138 422.971C462.001 422.954 461.877 422.883 461.793 422.774C461.708 422.664 461.67 422.525 461.687 422.386L471.546 341.251C471.653 340.368 472.01 339.534 472.574 338.851C473.137 338.168 473.884 337.664 474.723 337.401C475.562 337.137 476.458 337.125 477.304 337.365C478.15 337.606 478.909 338.089 479.491 338.756L490.759 351.693C490.805 351.745 490.842 351.805 490.865 351.871C490.888 351.936 490.898 352.006 490.895 352.076C490.891 352.146 490.874 352.214 490.844 352.277C490.814 352.34 490.772 352.396 490.721 352.442C490.669 352.489 490.609 352.524 490.543 352.546C490.478 352.568 490.409 352.577 490.34 352.572C490.272 352.567 490.205 352.548 490.143 352.517C490.082 352.485 490.027 352.441 489.983 352.388L478.715 339.452C478.265 338.937 477.678 338.565 477.024 338.38C476.371 338.195 475.679 338.205 475.031 338.408C474.383 338.612 473.806 339 473.371 339.527C472.935 340.054 472.658 340.697 472.574 341.38L462.716 422.514C462.701 422.642 462.64 422.759 462.545 422.844C462.45 422.929 462.327 422.976 462.201 422.975Z" fill="#494949"/>
<path d="M502.314 358.882C506.245 351.678 501.619 341.457 491.982 336.053C482.345 330.649 471.345 332.109 467.414 339.314C463.482 346.518 468.108 356.739 477.745 362.143C487.383 367.546 498.382 366.087 502.314 358.882Z" fill="#0CBC8B"/>
<path opacity="0.2" d="M502.746 406.633C509.114 401.523 508.736 390.284 501.901 381.531C495.065 372.777 484.361 369.823 477.993 374.933C471.624 380.043 472.003 391.281 478.838 400.035C485.673 408.789 496.377 411.743 502.746 406.633Z" fill="white"/>
<path opacity="0.5" d="M452.327 374.491C454.204 363.49 449.237 353.435 441.234 352.032C433.23 350.629 425.221 358.41 423.344 369.411C421.468 380.411 426.434 390.467 434.438 391.869C442.441 393.272 450.45 385.492 452.327 374.491Z" fill="white"/>
<path opacity="0.5" d="M502.314 358.882C506.245 351.678 501.619 341.457 491.982 336.053C482.345 330.649 471.345 332.109 467.414 339.314C463.482 346.518 468.108 356.739 477.745 362.143C487.383 367.546 498.382 366.087 502.314 358.882Z" fill="white"/>
<path d="M474.809 491.818H449.591L445.412 410.029H478.988L474.809 491.818Z" fill="#292A2E"/>
<path opacity="0.3" d="M474.809 491.818H449.591L445.412 410.029H478.988L474.809 491.818Z" fill="white"/>
<path d="M502.746 406.891C502.707 406.891 502.668 406.882 502.632 406.865C502.597 406.847 502.566 406.822 502.542 406.79L477.788 375.09C477.745 375.035 477.726 374.966 477.734 374.897C477.742 374.828 477.777 374.764 477.831 374.721C477.884 374.678 477.953 374.658 478.021 374.666C478.09 374.675 478.152 374.71 478.194 374.764L502.948 406.464C502.978 406.503 502.997 406.549 503.003 406.598C503.008 406.647 503 406.697 502.979 406.741C502.957 406.786 502.924 406.823 502.883 406.85C502.842 406.876 502.794 406.889 502.745 406.889L502.746 406.891Z" fill="white"/>
<path d="M500.667 361.421C500.612 361.422 500.559 361.404 500.515 361.371L468.837 337.925C468.808 337.906 468.783 337.88 468.765 337.85C468.746 337.821 468.733 337.788 468.727 337.753C468.721 337.718 468.722 337.683 468.73 337.648C468.738 337.614 468.753 337.582 468.773 337.553C468.794 337.525 468.82 337.501 468.85 337.483C468.879 337.465 468.913 337.453 468.947 337.448C468.982 337.443 469.017 337.446 469.05 337.455C469.084 337.464 469.115 337.48 469.142 337.502L500.818 360.947C500.862 360.98 500.895 361.026 500.912 361.078C500.929 361.131 500.929 361.188 500.912 361.241C500.895 361.293 500.862 361.339 500.817 361.372C500.773 361.404 500.72 361.422 500.665 361.421H500.667Z" fill="white"/>
<path d="M433.151 391.528C433.128 391.528 433.105 391.525 433.083 391.519C433.017 391.501 432.961 391.457 432.927 391.397C432.892 391.338 432.883 391.267 432.9 391.2L442.984 352.903C443.003 352.837 443.047 352.782 443.106 352.748C443.164 352.714 443.234 352.705 443.3 352.723C443.365 352.74 443.421 352.783 443.456 352.842C443.49 352.902 443.5 352.972 443.484 353.039L433.4 391.332C433.386 391.388 433.354 391.437 433.308 391.473C433.263 391.508 433.208 391.528 433.151 391.528Z" fill="white"/>
</svg>
